<svg width="59" height="54" viewBox="0 0 59 54" fill="none" xmlns="http://www.w3.org/2000/svg">
<path d="M54.8291 32.941L29.3244 51.4768L3.81982 32.941C3.4779 32.6896 3.22428 32.3364 3.09523 31.9321C2.96619 31.5277 2.96834 31.0929 3.10138 30.6899L6.02303 21.6376L11.8663 3.65261C11.923 3.50606 12.0132 3.37483 12.1298 3.26944C12.3195 3.09611 12.5673 3 12.8243 3C13.0813 3 13.329 3.09611 13.5188 3.26944C13.6418 3.38838 13.7325 3.53674 13.7822 3.7005L19.6255 21.6376H39.0234L44.8667 3.65261C44.9234 3.50606 45.0136 3.37483 45.1301 3.26944C45.3199 3.09611 45.5676 3 45.8246 3C46.0816 3 46.3293 3.09611 46.5191 3.26944C46.6422 3.38838 46.7328 3.53674 46.7825 3.7005L52.6258 21.6855L55.6672 30.6899C55.7882 31.1054 55.772 31.5488 55.621 31.9543C55.47 32.3598 55.1923 32.7059 54.8291 32.941Z" fill="#3A55D9" stroke="#374FC8" stroke-width="4.7896" stroke-linecap="round" stroke-linejoin="round"/>
</svg>
